<svg width="48" height="48" viewBox="0 0 48 48" fill="none" xmlns="http://www.w3.org/2000/svg">
<path d="M44.9323 0H3.06725C1.62029 0 0.450684 1.17222 0.450684 2.61656V44.4816C0.450684 45.9259 1.62029 47.0981 3.06725 47.0981H25.6089V28.8869H19.4914V21.7567H25.6089V16.5236C25.6089 10.4401 29.3245 7.1249 34.7669 7.1249C36.5959 7.11967 38.4275 7.21386 40.2486 7.40487V13.737H36.4938C33.5424 13.737 32.9667 15.1447 32.9667 17.2039V21.7436H40.0236L39.1078 28.8738H32.9641V47.0981H44.9323C46.3792 47.0981 47.5488 45.9259 47.5488 44.4816V2.61656C47.5488 1.17222 46.3792 0 44.9323 0Z" fill="#EEDAC0"/>
</svg>
