<svg width="48" height="48" viewBox="0 0 48 48" fill="none" xmlns="http://www.w3.org/2000/svg">
<path d="M23.5409 31.4016C27.8805 31.4016 31.3984 27.8837 31.3984 23.5441C31.3984 19.2045 27.8805 15.6865 23.5409 15.6865C19.2013 15.6865 15.6833 19.2045 15.6833 23.5441C15.6833 27.8837 19.2013 31.4016 23.5409 31.4016Z" fill="#EEDAC0"/>
<path d="M46.9673 13.9306C46.9385 11.9498 46.5722 9.9848 45.871 8.13228C44.6438 4.96885 42.145 2.46742 38.9816 1.24287C37.1526 0.554712 35.2189 0.185776 33.2617 0.143911C30.7446 0.0313989 29.9466 0 23.5569 0C17.1673 0 16.3483 1.75454e-07 13.8495 0.143911C11.8949 0.185776 9.96126 0.554712 8.13228 1.24287C4.96885 2.46742 2.46742 4.96885 1.24287 8.13228C0.554711 9.96125 0.183159 11.8949 0.146528 13.8495C0.0340153 16.3692 0 17.1673 0 23.5569C0 29.9466 -1.94949e-08 30.7629 0.146528 33.2644C0.185776 35.2215 0.554711 37.1526 1.24287 38.9868C2.47004 42.1476 4.96885 44.649 8.13489 45.8736C9.95602 46.5853 11.8897 46.9882 13.8521 47.051C16.3718 47.1635 17.1699 47.1976 23.5595 47.1976C29.9492 47.1976 30.7682 47.1976 33.267 47.051C35.2216 47.0118 37.1552 46.6428 38.9868 45.9547C42.1502 44.7275 44.649 42.2261 45.8762 39.0653C46.5644 37.2337 46.9333 35.3027 46.9725 33.3429C47.0851 30.8257 47.1191 30.0277 47.1191 23.6354C47.1138 17.2458 47.1138 16.4346 46.9673 13.9306ZM23.5412 35.6402C16.8585 35.6402 11.4448 30.2265 11.4448 23.5438C11.4448 16.8611 16.8585 11.4475 23.5412 11.4475C30.2187 11.4475 35.6376 16.8611 35.6376 23.5438C35.6376 30.2265 30.2187 35.6402 23.5412 35.6402ZM36.119 13.8207C34.5569 13.8207 33.2984 12.5595 33.2984 11C33.2984 9.44056 34.5569 8.17937 36.119 8.17937C37.6759 8.17937 38.9371 9.44056 38.9371 11C38.9371 12.5595 37.6759 13.8207 36.119 13.8207Z" fill="#EEDAC0"/>
</svg>
