<svg width="42" height="30" viewBox="0 0 42 30" fill="none" xmlns="http://www.w3.org/2000/svg">
<path d="M11.7173 7.52702C11.7173 8.16583 11.9418 8.80464 12.4707 8.80464L17.9206 8.80464L12.9676 11.458C11.7975 12.0805 11.7173 12.4244 11.7173 13.3416C11.7173 13.9804 11.9578 14.6191 12.4867 14.6191L22.6651 14.6191C23.1781 14.6191 23.4345 13.9804 23.4345 13.3416C23.4345 12.7028 23.1781 12.0641 22.6651 12.0641L17.2152 12.0641L22.7613 8.9521C23.3224 8.64086 23.4346 8.1167 23.4346 7.5271C23.4346 6.88837 23.1781 6.24964 22.6652 6.24964L12.4706 6.24964C11.9418 6.24964 11.7173 6.88837 11.7173 7.52702Z" fill="#EEDAC0"/>
<path d="M13.8972 16.4592C13.8972 15.9972 13.3843 15.7353 12.7913 15.7353C12.2783 15.7353 11.7173 15.951 11.7173 16.4592L11.7173 21.9417C11.7173 22.4653 11.9737 22.9889 12.4867 22.9889L22.6652 22.9889C23.1781 22.9889 23.4346 22.4653 23.4346 21.9417L23.4346 16.4592C23.4346 15.951 22.8735 15.7353 22.3606 15.7353C21.7676 15.7353 21.2546 15.9972 21.2546 16.4592L21.2546 20.5864L18.5297 20.5864L18.5297 18.2764C18.5297 17.7681 18.0168 17.5526 17.584 17.5526C17.0711 17.5526 16.6062 17.8144 16.6062 18.2764L16.6062 20.5864L13.8972 20.5864L13.8972 16.4592V16.4592Z" fill="#EEDAC0"/>
<path d="M35.8108 14.8981L41.6894 2.45979C41.9299 1.95082 41.8942 1.35338 41.5946 0.877099C41.295 0.400822 40.7734 0.112 40.2128 0.112L1.63467 0.112C0.73184 0.112 0 0.847526 0 1.7549L0 28.0413C0 28.9487 0.73184 29.6842 1.63467 29.6842L40.2128 29.6842C40.7734 29.6842 41.295 29.3954 41.5946 28.9191C41.8941 28.4428 41.9299 27.8455 41.6893 27.3364L35.8108 14.8981ZM3.26933 26.3984L3.26933 3.3978L37.6266 3.3978L32.5244 14.1932C32.3137 14.6393 32.3137 15.1569 32.5244 15.603L37.6266 26.3984L3.26933 26.3984Z" fill="#EEDAC0"/>
</svg>
