<svg width="42" height="60" viewBox="0 0 42 60" fill="none" xmlns="http://www.w3.org/2000/svg">
<path d="M31.4688 16.6414C30.5616 16.6414 29.6543 16.9602 29.6543 17.7115L29.6543 25.4516L25.8859 18.4172C25.0018 16.7553 24.5134 16.6414 23.2107 16.6414C22.3034 16.6414 21.3962 16.9829 21.3962 17.7341L21.3962 32.1901C21.3962 32.9186 22.3034 33.2828 23.2107 33.2828C24.1179 33.2828 25.0251 32.9186 25.0251 32.1901L25.0251 24.4499L29.4449 32.3267C29.8869 33.1235 30.6313 33.2829 31.4687 33.2829C32.3759 33.2829 33.283 32.9187 33.283 32.1902L33.283 17.7113C33.283 16.9602 32.3759 16.6414 31.4688 16.6414Z" fill="#EEDAC0"/>
<path d="M18.7828 19.7375C19.439 19.7375 19.8109 19.0091 19.8109 18.1668C19.8109 17.4382 19.5046 16.6414 18.7828 16.6414L10.9963 16.6414C10.2527 16.6414 9.50903 17.0056 9.50903 17.7341L9.50904 32.1902C9.50904 32.9187 10.2527 33.2829 10.9963 33.2829L18.7828 33.2829C19.5046 33.2829 19.8109 32.4861 19.8109 31.7576C19.8109 30.9154 19.439 30.1868 18.7828 30.1868L12.9212 30.1868L12.9212 26.3167L16.202 26.3167C16.9238 26.3167 17.2299 25.5883 17.2299 24.9737C17.2299 24.2451 16.8581 23.5849 16.202 23.5849L12.9212 23.5849L12.9212 19.7375L18.7828 19.7375V19.7375Z" fill="#EEDAC0"/>
<path d="M21 50.8603L38.6655 59.2094C39.3884 59.551 40.2369 59.5003 40.9134 59.0748C41.5898 58.6493 42 57.9085 42 57.1123L42 2.32164C42 1.0394 40.9554 -4.56624e-08 39.6667 -1.01993e-07L2.33334 -1.73388e-06C1.04464 -1.79022e-06 2.45796e-06 1.03939 2.40191e-06 2.32163L6.93929e-09 57.1122C-2.78639e-08 57.9085 0.410199 58.6493 1.08663 59.0747C1.76307 59.5002 2.61147 59.551 3.33445 59.2093L21 50.8603ZM4.66667 4.64327L37.3333 4.64327L37.3333 53.4392L22.0011 46.1929C21.3676 45.8935 20.6324 45.8935 19.9989 46.1929L4.66667 53.4392L4.66667 4.64327Z" fill="#EEDAC0"/>
</svg>
