<svg width="43" height="43" viewBox="0 0 43 43" fill="none" xmlns="http://www.w3.org/2000/svg">
<path d="M21.5 0C33.374 0 43 9.62601 43 21.5C43 33.374 33.374 43 21.5 43C9.62601 43 0 33.374 0 21.5C0.013298 9.63161 9.63161 0.0132976 21.5 0ZM2.90551 29.032L9.01992 30.0871C8.32005 27.5203 7.94212 24.8765 7.89488 22.2167H1.45118C1.53202 24.5563 2.02438 26.8635 2.90551 29.032ZM41.5488 22.2167H35.1051C35.0579 24.8765 34.6799 27.5203 33.9801 30.0871L40.0945 29.032C40.9756 26.8635 41.468 24.5563 41.5488 22.2167ZM40.0945 13.968L33.9801 12.9129C34.6799 15.4797 35.0579 18.1235 35.1051 20.7833H41.5488C41.468 18.4437 40.9756 16.1365 40.0945 13.968ZM20.7833 11.5069C18.2082 11.5398 15.6393 11.7743 13.1005 12.2085L10.5708 12.6449C9.79363 15.2897 9.37546 18.0269 9.32751 20.7833H20.7833V11.5069ZM12.8563 10.7958C15.4755 10.3483 18.1263 10.1065 20.7833 10.0736V1.47358C16.6747 1.8683 13.1058 5.6301 11.0831 11.1048L12.8563 10.7958ZM22.2167 10.0736C24.8737 10.1065 27.5238 10.3483 30.143 10.7958L31.9169 11.1027C29.8942 5.6266 26.3253 1.8634 22.2167 1.47043V10.0736ZM29.8988 12.2085C27.3604 11.7743 24.7918 11.5398 22.2167 11.5069V20.7833H33.6725C33.6245 18.0269 33.2064 15.2897 32.4292 12.6449L29.8988 12.2085ZM33.6725 22.2167H22.2167V31.4931C24.7918 31.4602 27.3607 31.2257 29.8995 30.7915L32.4292 30.3551C33.2064 27.7103 33.6245 24.9731 33.6725 22.2167ZM30.1437 32.2042C27.5245 32.6524 24.8741 32.8953 22.2167 32.9303V41.5303C26.3253 41.1352 29.8942 37.3734 31.9169 31.8987L30.1437 32.2042ZM20.7833 32.9303C18.1263 32.8953 15.4762 32.6524 12.857 32.2042L11.0831 31.8973C13.1058 37.3734 16.6747 41.1366 20.7833 41.5296V32.9303ZM13.1012 30.7915C15.6396 31.2257 18.2082 31.4602 20.7833 31.4931V22.2167H9.32751C9.37546 24.9731 9.79363 27.7103 10.5708 30.3551L13.1012 30.7915ZM7.89488 20.7833C7.94212 18.1235 8.32005 15.4797 9.01992 12.9129L2.90551 13.968C2.02438 16.1365 1.53202 18.4437 1.45118 20.7833H7.89488ZM3.63058 12.3884L9.49163 11.3771C10.5453 7.93967 12.5165 4.85465 15.1935 2.45444C10.1877 4.12503 6.03638 7.69122 3.63058 12.3884ZM27.8065 2.45444C30.4835 4.85465 32.4547 7.93967 33.5084 11.3771L39.3694 12.3884C36.9636 7.69122 32.8123 4.12503 27.8065 2.45444ZM39.3694 30.6116L33.5084 31.6229C32.4547 35.0603 30.4835 38.1454 27.8065 40.5456C32.8123 38.875 36.9636 35.3088 39.3694 30.6116ZM15.1935 40.5456C12.5165 38.1454 10.5453 35.0603 9.49163 31.6229L3.63058 30.6116C6.03638 35.3088 10.1877 38.875 15.1935 40.5456Z" fill="#202020"/>
</svg>
