<svg width="128" height="128" viewBox="0 0 128 128" fill="none" xmlns="http://www.w3.org/2000/svg">
<g clip-path="url(#clip0_17_4361)">
<path d="M68.6738 92.4734L48.2963 89.0236C47.3916 88.8705 46.5409 89.0779 45.7469 89.641C44.952 90.2057 44.4786 90.9399 44.3253 91.8458L40.8754 112.224C40.722 113.13 40.9283 113.981 41.4921 114.774C42.0566 115.567 42.7908 116.042 43.6963 116.195L64.0738 119.645C64.9785 119.798 65.831 119.593 66.6224 119.028C67.4183 118.465 67.8925 117.73 68.0458 116.824L71.4957 96.4455C71.6491 95.5397 71.4441 94.6907 70.8773 93.8954C70.3158 93.101 69.5784 92.6265 68.6738 92.4734Z" fill="#AB9A83"/>
<path d="M105.748 36.0006C104.151 31.3318 101.762 27.2173 98.5804 23.6502C95.4008 20.0846 91.6638 17.0344 87.3768 14.5043C83.0888 11.9748 78.6812 10.3256 74.152 9.55879C56.9455 6.64586 42.5393 11.9511 30.933 25.4748C30.3562 26.1337 30.0659 26.8995 30.0634 27.7727C30.062 28.6449 30.3808 29.427 31.0207 30.1174L43.1487 43.0889C43.8079 43.6654 44.4774 44.0116 45.1569 44.1266C46.176 44.2992 47.1295 43.9941 48.0195 43.2132C52.9566 38.8094 56.5364 36.0676 58.757 34.9871C61.4692 33.7582 64.6637 33.4553 68.343 34.0782C71.7957 34.6627 74.684 36.0835 77.0107 38.3391C79.3358 40.5964 80.296 42.9134 79.8935 45.2907C79.4433 47.95 78.3727 49.9823 76.6793 51.3842C74.9868 52.7857 72.3404 53.9673 68.7413 54.9307C63.9922 56.1643 59.4233 58.55 55.0415 62.0879C50.657 65.6256 48.0684 69.7436 47.2731 74.4414L46.6263 78.262C46.444 79.3385 46.56 80.4493 46.9782 81.5972C47.3955 82.7459 48.0281 83.3911 48.8778 83.5349L69.255 86.9846C70.1608 87.138 71.0266 86.8343 71.8554 86.0691C72.6813 85.3089 73.1782 84.4465 73.3408 83.4857C73.5803 82.071 74.68 80.3045 76.6375 78.1917C78.5968 76.078 80.8466 74.5647 83.3897 73.6556C85.8068 72.7842 87.7015 72.0729 89.0777 71.5187C90.4547 70.9669 92.2897 70.0083 94.587 68.6517C96.8837 67.2932 98.7256 65.8726 100.111 64.39C101.497 62.9074 102.855 60.9097 104.183 58.3971C105.512 55.8858 106.434 53.1012 106.952 50.0449C107.746 45.3467 107.344 40.6646 105.748 36.0006Z" fill="#AB9A83"/>
</g>
<defs>
<clipPath id="clip0_17_4361">
<rect width="110.224" height="110.224" fill="white" transform="translate(19.1306 0.24408) rotate(9.60865)"/>
</clipPath>
</defs>
</svg>
