<svg width="52" height="43" viewBox="0 0 52 43" fill="none" xmlns="http://www.w3.org/2000/svg">
<path d="M46.717 11.0259C46.751 11.4838 46.751 11.9391 46.751 12.3943C46.751 26.3275 36.146 42.3828 16.7652 42.3828C10.7942 42.3828 5.24705 40.6532 0.579102 37.6494C1.42687 37.7462 2.24324 37.7802 3.12502 37.7802C8.05201 37.7802 12.5865 36.1161 16.2104 33.2771C11.5765 33.1803 7.69354 30.1451 6.35386 25.9691C7.00538 26.0659 7.65952 26.1313 8.34506 26.1313C9.28964 26.1313 10.2395 26.0005 11.1212 25.7728C6.28844 24.7942 2.66974 20.5528 2.66974 15.4296V15.2987C4.07483 16.0811 5.70495 16.5704 7.43188 16.6358C4.59291 14.7466 2.73253 11.5152 2.73253 7.85983C2.73253 5.90264 3.25323 4.10768 4.16641 2.54298C9.35505 8.93524 17.155 13.1139 25.8996 13.5718C25.7374 12.7868 25.6379 11.9731 25.6379 11.1567C25.6379 5.34793 30.3373 0.617188 36.1774 0.617188C39.2127 0.617188 41.9522 1.88884 43.878 3.94546C46.2591 3.48756 48.5407 2.60577 50.5659 1.39954C49.7836 3.84603 48.1168 5.90264 45.932 7.20831C48.054 6.97805 50.1106 6.39194 51.9998 5.57557C50.5659 7.66359 48.7736 9.52397 46.717 11.0259Z" fill="#EEDAC0"/>
</svg>
