<svg width="54" height="37" viewBox="0 0 54 37" fill="none" xmlns="http://www.w3.org/2000/svg">
<path d="M52.1826 5.99722C51.5808 3.75221 49.8146 1.98079 47.5722 1.37637C43.4747 0.251245 27.0819 0.23293 27.0819 0.23293C27.0819 0.23293 10.6918 0.214614 6.5916 1.29002C4.39369 1.88921 2.57779 3.69988 1.97075 5.94227C0.890109 10.0398 0.879643 18.5384 0.879643 18.5384C0.879643 18.5384 0.869176 27.0789 1.94197 31.1345C2.54378 33.3769 4.30996 35.1483 6.55497 35.7528C10.6944 36.8779 27.0427 36.8962 27.0427 36.8962C27.0427 36.8962 43.4354 36.9145 47.533 35.8417C49.7727 35.2399 51.5468 33.4711 52.1564 31.2287C53.2397 27.1338 53.2475 18.6378 53.2475 18.6378C53.2475 18.6378 53.2999 10.0948 52.1826 5.99722ZM21.8383 26.4116L21.8514 10.7123L35.4758 18.575L21.8383 26.4116Z" fill="#EEDAC0"/>
</svg>
